<?xml version="1.0" encoding="UTF-8" standalone="no"?>
<!-- Created with Inkscape (http://www.inkscape.org/) -->

<svg
   xmlns:dc="http://purl.org/dc/elements/1.1/"
   xmlns:cc="http://creativecommons.org/ns#"
   xmlns:rdf="http://www.w3.org/1999/02/22-rdf-syntax-ns#"
   xmlns:svg="http://www.w3.org/2000/svg"
   xmlns="http://www.w3.org/2000/svg"
   version="1.1"
   width="300"
   height="300"
   id="svg2">
  <defs
     id="defs4" />
  <metadata
     id="metadata7">
    <rdf:RDF>
      <cc:Work
         rdf:about="">
        <dc:format>image/svg+xml</dc:format>
        <dc:type
           rdf:resource="http://purl.org/dc/dcmitype/StillImage" />
        <dc:title></dc:title>
      </cc:Work>
    </rdf:RDF>
  </metadata>
  <g
     transform="translate(0,-752.3622)"
     id="layer1">
    <g
       transform="matrix(0.7451579,0,0,0.7451579,-123.42866,488.08204)"
       id="g3074"
       style="fill:#7fbe27;fill-opacity:1;stroke:#00ffff;stroke-opacity:0">
      <path
         d="m 251.42999,625.10943 c -20.03469,4.97608 -36.16292,9.12318 -56.19761,10.05976 l 3.45816,31.4437 c 34.3651,-0.64158 54.91162,-6.28041 82.65377,-17.51871 -10.10761,-7.05282 -19.64747,-11.45419 -29.91432,-23.98475 z"
         id="rect2996"
         style="fill:#7fbe27;fill-opacity:1;fill-rule:evenodd;stroke:#00ffff;stroke-width:3;stroke-linecap:butt;stroke-linejoin:round;stroke-miterlimit:4;stroke-opacity:0" />
      <path
         d="m 461.0938,573.4263 c 32.63383,-65.01286 -29.47108,-91.80802 -57.51895,-38.5391 -12.60862,23.94645 -56.05877,72.20619 -69.64205,81.04288 -19.48672,-5.41468 -20.00152,-7.79426 -31.09338,-16.77068 35.21141,-24.44654 54.48255,-51.33074 68.21536,-74.73368 67.01308,-114.20114 177.86558,-12.18319 114.86514,71.24973 -9.50787,-6.32079 -17.24222,-12.72174 -24.82612,-22.24915 z"
         id="rect2996-1"
         style="fill:#7fbe27;fill-opacity:1;fill-rule:evenodd;stroke:#00ffff;stroke-width:3;stroke-linecap:butt;stroke-linejoin:round;stroke-miterlimit:4;stroke-opacity:0" />
      <path
         d="m 399.26816,560.16534 c 17.34095,34.27051 50.14369,71.4183 121.02273,112.2559 l 17.50788,-27.88235 c -54.02324,-31.9563 -79.25875,-55.15518 -117.17652,-114.8808 -7.30394,6.05775 -13.4408,16.52785 -21.35409,30.50725 z"
         id="rect2996-8"
         style="fill:#7fbe27;fill-opacity:1;fill-rule:evenodd;stroke:#00ffff;stroke-width:3;stroke-linecap:butt;stroke-linejoin:round;stroke-miterlimit:4;stroke-opacity:0" />
      <path
         d="m 428.25228,612.00481 c -52.56955,36.00406 -110.75941,19.16446 -141.36163,-12.48146 -90.52129,-93.60855 32.53592,-184.91848 83.27786,-90.47673 6.7745,-9.55629 13.73556,-16.52298 22.82263,-23.92867 -84.00809,-126.0292 -230.465,5.38847 -138.80109,128.89899 34.83265,46.93449 127.25477,74.32456 196.49191,21.75224 z"
         id="rect2996-1-6"
         style="fill:#7fbe27;fill-opacity:1;fill-rule:evenodd;stroke:#00ffff;stroke-width:3;stroke-linecap:butt;stroke-linejoin:round;stroke-miterlimit:4;stroke-opacity:0" />
    </g>
  </g>
</svg>
