<?xml version="1.0" encoding="UTF-8" standalone="no"?>
<!-- Created with Inkscape (http://www.inkscape.org/) -->

<svg
   xmlns:dc="http://purl.org/dc/elements/1.1/"
   xmlns:cc="http://creativecommons.org/ns#"
   xmlns:rdf="http://www.w3.org/1999/02/22-rdf-syntax-ns#"
   xmlns:svg="http://www.w3.org/2000/svg"
   xmlns="http://www.w3.org/2000/svg"
   xmlns:sodipodi="http://sodipodi.sourceforge.net/DTD/sodipodi-0.dtd"
   xmlns:inkscape="http://www.inkscape.org/namespaces/inkscape"
   width="374.44736mm"
   height="88.666664mm"
   viewBox="0 0 1326.782 314.17322"
   id="svg6508"
   version="1.1"
   inkscape:version="0.91 r13725"
   sodipodi:docname="Kantetsu Logo S.svg">
  <defs
     id="defs6510" />
  <sodipodi:namedview
     id="base"
     pagecolor="#ffffff"
     bordercolor="#666666"
     borderopacity="1.0"
     inkscape:pageopacity="0.0"
     inkscape:pageshadow="2"
     inkscape:zoom="0.35"
     inkscape:cx="-543.03758"
     inkscape:cy="74.229468"
     inkscape:document-units="px"
     inkscape:current-layer="layer1"
     showgrid="false"
     fit-margin-top="2"
     fit-margin-left="2"
     fit-margin-bottom="2"
     fit-margin-right="2"
     inkscape:window-width="1920"
     inkscape:window-height="1001"
     inkscape:window-x="-9"
     inkscape:window-y="-9"
     inkscape:window-maximized="1" />
  <metadata
     id="metadata6513">
    <rdf:RDF>
      <cc:Work
         rdf:about="">
        <dc:format>image/svg+xml</dc:format>
        <dc:type
           rdf:resource="http://purl.org/dc/dcmitype/StillImage" />
        <dc:title />
      </cc:Work>
    </rdf:RDF>
  </metadata>
  <g
     inkscape:label="レイヤー 1"
     inkscape:groupmode="layer"
     id="layer1"
     transform="translate(217.6767,-292.41844)">
    <g
       id="g6490"
       transform="matrix(1.1824711,0,0,1.1824711,1451.5837,340.28942)">
      <path
         inkscape:connector-curvature="0"
         id="rect5175-0-6-8"
         d="m -794.33342,73.5004 -2.55068,12 -62.5,0 -4.03857,19 62.5,0 -1.91301,9 -62.5,0 -13.39106,63 23.05469,0 -40.49143,42.7148 41.4668,0 37.88582,-39.9667 -8.4952,39.9667 36.5,0 9.07932,-42.7148 4.81055,0 17.50075,42.7148 37.4668,0 -19.11013,-42.7148 21.83203,0 13.39106,-63 -62.5,0 1.91301,-9 62.5,0 4.03857,-19 -62.5,0 2.55068,-12 -36.5,0 z m 154.21484,0 -26.05786,28.5 32.75,0 17.55316,-19.1973 6.69684,19.1973 32.75,0 -11.94214,-28.5 -51.75,0 z m 76.18946,0 -8.52468,40.1055 27.5664,0 -3.69068,17.3633 -28.36718,0 -4.64303,21.8437 16.27929,0 -37.58104,66.4023 29.75976,0 25.9887,-43.6484 7.43318,43.6484 25.75976,0 -11.30762,-66.4023 20.81836,0 4.64303,-21.8437 -22.9375,0 3.69068,-17.3633 21.73828,0 4.64303,-21.8438 -21.73828,0 3.88165,-18.2617 -25.84571,0 -3.88165,18.2617 -7.9707,0 3.88165,-18.2617 -19.5957,0 z m 106.0957,0 -4.41055,20.75 51.30078,0 4.41055,-20.75 -51.30078,0 z m 68.10547,0 5.92776,15.1797 -18.2168,0 -3.71974,17.5 34.15625,0 -1.61867,7.6152 -34.15625,0 -16.47936,77.5293 105.81445,0 16.47936,-77.5293 -37.55078,0 1.61867,-7.6152 37.55078,0 3.71974,-17.5 -14.41601,0 14.99607,-15.1797 -31.10547,0 -14.99607,15.1797 -10.96875,0 -5.92776,-15.1797 -31.10742,0 z m -696.53275,6.7148 -29.5454,139 34.25,0 16.4657,-77.4648 56,0 13.0797,-61.5352 -90.25,0 z m 101.75,0 -13.0797,61.5352 56,0 -16.46566,77.4648 34.25,0 29.54536,-139 -90.25,0 z m -68.2899,17.2422 23.3593,0 -1.5298,7.1973 -23.3594,0 1.5299,-7.1973 z m 94.39058,0 23.35938,0 -1.52983,7.1973 -23.35938,0 1.52983,-7.1973 z m 295.29431,9.9727 -3.39011,15.9492 28.7223,0.1211 -2.12556,10 -28.7223,-0.1211 -3.9817,18.7324 28.72426,0.1211 -9.77956,46 -28.72426,-0.1211 -4.48569,21.1035 82.67969,0 4.48569,-21.1035 -28.77574,0.1211 9.77565,-46 28.77574,-0.1211 3.9817,-18.7324 -28.77379,0.1211 2.12556,-10 28.77379,-0.1211 3.39011,-15.9492 -82.67578,0 z m 196.652,4.3203 -4.19799,19.75 16.5,0 -10.42523,49.0469 -23.27104,18.4121 -4.30551,20.2558 13.13281,0 18.5387,-15.2148 14.01172,0 27.09607,15.2148 97.43554,0 4.18387,-19.6835 -102.1543,0 -13.27013,-10.0313 16.52627,-77.75 -49.80078,0 z m -590.58809,5.707 23.3594,0 -1.5298,7.1973 -23.3594,0 1.5298,-7.1973 z m 94.39065,0 23.35938,0 -1.52983,7.1973 -23.35938,0 1.52983,-7.1973 z m 125.74106,10.4805 31.01562,0 -1.6909,7.9551 -31.01562,0 1.6909,-7.9551 z m 67.51562,0 31.01562,0 -1.6909,7.9551 -31.01562,0 1.6909,-7.9551 z m 394.62299,1.4981 34.01757,0 -1.32848,6.25 -34.01757,0 1.32848,-6.25 z m -671.20262,17.6953 6.4664,9.5761 -17.4804,0 -3.5695,16.793 32.3906,0 2.8133,4.168 -1.9701,1.789 -34.5,0 -3.5694,16.793 25.3671,0 -25.27,22.9648 32.1465,0 18.9589,-17.2285 11.6329,17.2285 32.14651,0 -15.50731,-22.9648 21.48238,0 3.56946,-16.793 -30.61714,0 -1.2077,-1.789 4.5871,-4.168 28.50394,0 3.56946,-16.793 -13.59571,0 10.53744,-9.5761 -26.88473,0 -10.5375,9.5761 -16.1113,0 -6.4665,-9.5761 -26.8847,0 z m 666.95149,2.3047 34.01757,0 -1.32848,6.25 -34.01757,0 1.32848,-6.25 z m -462.7277,1.2734 31.01562,0 -1.69091,7.9551 -31.01562,0 1.69091,-7.9551 z m 67.51562,0 31.01562,0 -1.69091,7.9551 -31.01562,0 1.69091,-7.9551 z m 99.73064,10.3457 -6.37866,30 21.75196,0 6.3767,-30 -21.75,0 z m 60.92578,0 -6.3767,30 21.75195,0 6.37475,-30 -21.75,0 z m 230.30453,8.3809 34.01757,0 -1.32848,6.25 -34.01757,0 1.32848,-6.25 z"
         style="color:#000000;clip-rule:nonzero;display:inline;overflow:visible;visibility:visible;opacity:1;isolation:auto;mix-blend-mode:normal;color-interpolation:sRGB;color-interpolation-filters:linearRGB;solid-color:#000000;solid-opacity:1;fill:#1d2088;fill-opacity:1;fill-rule:nonzero;stroke:none;stroke-width:8;stroke-linecap:round;stroke-linejoin:round;stroke-miterlimit:4;stroke-dasharray:none;stroke-dashoffset:0;stroke-opacity:0.48736465;color-rendering:auto;image-rendering:auto;shape-rendering:auto;text-rendering:auto;enable-background:accumulate" />
      <g
         style="font-style:normal;font-variant:normal;font-weight:normal;font-stretch:normal;font-size:65px;line-height:100%;font-family:HGGothicE;-inkscape-font-specification:HGGothicE;text-align:start;letter-spacing:1.5px;word-spacing:0px;writing-mode:lr-tb;text-anchor:start;fill:#000000;fill-opacity:1;stroke:none;stroke-width:1px;stroke-linecap:butt;stroke-linejoin:miter;stroke-opacity:1"
         id="text5744-7">
        <path
           d="m -1083.1644,-9.6079769 0,17.5195312 6.8554,-2.5390625 0.7618,7.1093752 -18.7891,6.601562 q -0.2539,1.523438 -1.0156,1.015625 -0.5078,-0.253906 -1.0157,-1.523437 l -2.0312,-6.347656 8.125,-2.2851567 0,-19.5507812 -7.3633,0 0,-6.6015621 7.3633,0 0,-13.964844 6.0937,0 q 3.0469,0.253906 1.0157,2.03125 l 0,11.933594 5.5859,0 0,6.6015621 -5.5859,0 z m 26.6601,-22.5976561 q 3.0469,0.253906 1.0157,2.03125 l 0,12.949219 6.8554,-2.285157 1.2696,-1.523437 5.5859,3.808594 q 0.5078,0.253906 0.5078,0.761718 0,0.507813 -0.7617,1.015625 l 0,18.7890628 q 0,1.015625 -0.2539,2.03125 -1.0156,3.3007813 -4.8242,3.3007813 l -7.1094,0 -0.7617,-7.109375 4.3164,0 q 1.0156,0 1.2695,-0.5078125 0.2539,-0.50781251 0.2539,-1.26953126 l 0,-11.93359334 -6.3476,2.2851558 0,22.3437502 -7.1094,0 0,-19.8046877 -4.0625,1.5234375 0,21.8359372 q 0,0.761719 0.2539,1.269532 0.2539,0.507812 1.2695,0.507812 l 17.0117,0 q 1.5235,0 1.7774,-1.523437 l 1.5234,-5.839844 7.6172,2.539062 -2.0312,6.601563 q -1.0157,5.332031 -6.8555,5.332031 l -22.5977,0 q -5.0781,-0.253906 -5.0781,-5.332031 l 0,-22.8515627 -6.3477,2.53906254 -1.7773,-7.10937504 8.125,-2.7929688 0,-14.726562 6.0938,0 q 3.0468,0.253906 1.0156,2.03125 l 0,10.15625 4.0625,-1.523438 0,-17.519531 6.0937,0 z"
           style=""
           id="path4139" />
        <path
           d="m -992.03552,4.8646793 0,5.8398437 q 1.26953,-1.0156249 2.53906,-2.7929687 -1.77734,-7.61718746 -1.77734,-23.3593753 l -20.0586,0 0,-6.601562 19.80469,0 0,-10.410156 6.09375,0 q 3.04688,0.253906 1.01563,2.03125 l 0,8.378906 4.0625,0 q -1.52344,-2.285156 -3.8086,-5.078125 l 5.07813,-3.808594 q 3.04687,2.792969 5.58593,6.601563 l -3.30078,2.285156 4.82422,0 0,6.601562 -12.1875,0 q 0,7.3632816 0.50781,14.72656284 2.28516,-4.57031254 3.8086,-11.42578084 l 5.33203,2.03125 q 2.28516,1.0156246 1.77734,2.0312496 -0.2539,0.5078125 -1.26953,0.7617187 -2.28515,7.36328129 -7.36328,16.25 0.50781,2.0312497 2.03125,5.0781247 1.52344,3.554688 2.03125,-0.253906 l 0.76172,-4.8242187 6.34766,2.5390627 q -0.50782,3.300781 -1.26954,6.601562 -1.01562,4.316407 -2.79296,5.839844 -3.04688,2.03125 -6.85547,-0.507812 -3.55469,-3.046875 -5.58594,-8.378907 -5.83984,6.09375 -19.29691,11.933594 l -2.539,-7.363281 q 9.1406,-2.792969 15.23435,-7.617188 l -16.50395,4.570313 q -0.7617,2.539062 -2.0312,1.777344 -0.7617,-0.507813 -1.0156,-1.777344 l -1.0157,-5.332031 -15.2343,5.332031 q -0.2539,1.269531 -0.7618,1.523437 -0.5078,0.253907 -1.0156,-0.253906 -0.5078,-0.761719 -1.0156,-2.285156 l -1.2695,-6.0937502 7.6172,-1.7773437 0,-18.7890621 -6.3477,0 0,-6.601563 6.3477,0 0,-13.457031 6.0937,0 q 3.0469,0.253906 1.0156,2.03125 l 0,11.425781 6.0938,0 0,6.601563 -6.0938,0 0,16.7578121 6.0938,-1.7773438 0,5.3320313 20.31248,-4.3164063 z m -0.76172,-0.5078125 -11.17186,0 0,1.2695313 -6.6016,0 0,-17.7734371 17.77346,0 0,16.5039058 z m -11.17186,-10.4101562 0,4.3164062 4.5703,0 0,-4.3164062 -4.5703,0 z"
           style=""
           id="path4141" />
        <path
           d="m -934.67615,-28.143133 q 12.1875,0 19.55078,6.09375 7.10938,6.09375 7.10938,17.7734373 0,9.140625 -5.58594,15.9960937 -5.58594,6.855469 -15.23437,10.917969 l -5.83985,-6.347656 q 19.29688,-7.3632817 19.29688,-20.3125004 0,-8.1249996 -4.57031,-12.6953126 -4.82422,-4.824219 -14.47266,-4.824219 4.0625,1.015625 4.0625,2.03125 -0.25391,1.015625 -1.52344,1.269532 -0.76172,5.839843 -3.80859,17.51953084 -2.79297,10.91796916 -5.83985,14.72656216 -3.80859,4.824219 -8.125,4.824219 -4.57031,0 -8.125,-3.554687 -5.33203,-5.3320317 -5.33203,-16.25000041 0,-10.91796859 8.125,-19.04296859 8.125,-8.125 20.3125,-8.125 z m -18.02734,37.3242186 q 1.52344,1.5234374 2.79297,1.5234374 2.79297,0 4.57031,-3.8085937 4.57031,-12.4414062 6.34766,-27.9296873 -8.63282,1.269531 -12.69532,7.871094 -3.80859,6.0937496 -3.80859,12.44140584 0,7.10937496 2.79297,9.90234376 z"
           style=""
           id="path4143" />
        <path
           d="m -862.3363,-15.955633 q -6.85547,-2.03125 -18.78907,-8.378906 l 3.30079,-5.839844 q 11.67968,6.09375 18.53515,7.617187 l -3.04687,6.601563 z m -10.66407,4.0625 q -2.28515,2.2851561 -2.03125,3.5546873 0.25391,1.015625 5.33204,3.3007813 4.3164,1.7773437 8.3789,5.83984374 4.0625,4.06249996 4.0625,11.67968766 0,5.585937 -3.30078,8.886719 -3.30078,3.300781 -9.14062,3.300781 -5.33204,0 -12.44141,-3.046875 l 2.03125,-7.871094 q 5.58594,2.792969 8.37891,3.300781 7.10937,1.269532 7.10937,-5.839843 0,-3.8085942 -2.03125,-5.8398442 -2.28516,-2.2851562 -6.85547,-4.57031246 -5.33203,-2.79296874 -6.85547,-4.06250004 -2.28515,-1.7773437 -2.28515,-4.3164062 0,-2.03125 0.50781,-3.5546871 0.50781,-1.777344 2.03125,-4.0625 l 7.10937,3.300781 z m 29.96094,28.183594 q -6.09375,-10.6640629 -13.45703,-17.5195317 l 5.07813,-4.0625 q 3.55468,2.2851563 7.87109,7.8710938 4.0625,5.3320312 6.34766,9.1406249 l -5.83985,4.570313 z M -877.82458,5.6263981 q -6.34766,4.3164062 -15.23438,14.4726559 l -5.58594,-4.824218 q 2.79297,-3.808594 6.85547,-7.6171879 4.0625,-3.8085938 8.125,-6.85546876 l 5.83985,4.82421876 z"
           style=""
           id="path4145" />
        <path
           d="m -811.8324,-32.967352 q 1.52344,0 1.77735,0.761719 0,0.507812 -0.76172,1.269531 l 0,12.1875 3.80859,2.792969 -1.77734,2.03125 q -1.01563,1.523437 -2.03125,2.792969 l 0,1.015625 q 9.90234,-10.15625 17.77344,-9.902344 2.79296,0 5.58593,2.539062 2.53907,2.285157 1.77735,6.855469 -1.01563,9.3945313 -1.77735,19.5507813 -0.2539,4.8242187 2.79297,5.3320317 3.04688,0.507812 5.58594,-4.5703129 l 2.28516,-4.3164063 5.58593,4.5703125 -2.53906,4.5703127 q -4.0625,7.109375 -11.17187,7.109375 -4.31641,0 -6.85547,-2.539063 -2.79297,-2.792968 -2.79297,-7.363281 0,-6.3476562 0.76172,-13.2031249 0.50781,-6.8554688 0.76172,-7.6171875 0.50781,-4.3164066 -3.8086,-3.3007816 -2.53906,0.761719 -6.34765,3.8085941 -4.57032,3.5546875 -7.61719,6.8554687 l 0,26.9140622 -7.10938,0 0,-19.2968747 q -5.83984,8.1249997 -9.90234,12.6953127 l -5.33203,-5.332031 q 10.66406,-11.9335942 15.23437,-19.0429692 l 0,-4.8242188 q -5.33203,2.0312501 -10.91797,3.5546876 l -2.28515,-7.3632816 q 6.85547,-1.269531 13.20312,-3.046875 l 0,-15.488281 6.09375,0 z"
           style=""
           id="path4147" />
        <path
           d="m -741.01599,-33.475164 q 2.28516,0 2.79297,1.015625 0.50781,0.761718 -1.01563,1.523437 -0.2539,4.316406 -0.76172,8.632813 3.8086,0 9.64844,-0.761719 5.33203,-0.761719 11.42578,-2.03125 l 0.76172,7.617187 q -8.63281,1.269532 -22.08984,2.285157 l 0,5.3320308 q 2.03125,-0.5078128 4.0625,-0.5078128 1.77734,-0.253906 4.0625,-0.253906 l 0.50781,-4.0625 6.60156,1.269531 q 1.77735,0.507813 1.52344,1.269532 0,0.761718 -1.01562,0.761718 l -0.50782,1.7773441 q 6.09375,0.7617187 11.42578,4.8242187 4.57032,3.5546875 5.33204,10.6640625 1.01562,10.9179687 -6.09375,15.7421877 -3.30079,2.285156 -7.10938,3.554687 -4.82422,1.523438 -7.10937,1.523438 l -3.8086,-6.855469 q 5.07813,-0.507812 10.15625,-2.285156 8.125,-2.792969 6.85547,-11.1718752 -1.01562,-7.8710937 -10.91797,-9.6484375 -2.79297,11.171875 -9.39453,17.7734377 1.01563,1.523437 2.03125,2.792969 l -5.33203,4.316406 q -0.76172,-1.269531 -1.77734,-2.539063 -4.82422,5.078125 -10.66407,5.585938 -8.125,0.507812 -9.39453,-7.109375 -2.28515,-15.9960939 13.20313,-24.8828127 0.2539,-3.8085933 0.2539,-7.6171873 -5.33203,0.253906 -10.91797,0.253906 l -0.50781,-7.363281 q 7.10938,0.253906 11.67969,0 0.25391,-5.585938 0.50781,-11.425781 l 5.58594,0 z m 7.61719,29.4531246 q -1.77735,0 -3.55469,0.2539062 -1.26953,0 -3.30078,0.7617188 0,2.28515624 0.50781,5.078125 0.50781,2.5390625 1.26953,5.3320312 3.55469,-4.3164062 5.07813,-11.4257812 z m -13.45703,3.80859374 q -4.57032,2.79296876 -6.34766,7.61718746 -1.52344,4.3164062 -1.26953,6.3476562 0,6.347656 5.83984,3.554688 3.55469,-2.03125 4.82422,-3.808594 -2.53906,-6.8554689 -3.04687,-13.71093766 z"
           style=""
           id="path4149" />
        <path
           d="m -685.94177,-25.096258 q 1.52344,0.253906 2.03125,1.523437 0.2539,0.761719 -1.26953,1.523438 -1.01563,7.109375 -1.26953,16.5039061 -0.25391,8.6328125 1.26953,14.9804687 0.76172,3.5546872 2.79297,3.8085942 2.03125,0 4.3164,-4.3164067 l 3.04688,-6.3476562 6.34765,4.8242187 q -1.77734,4.5703122 -3.80859,8.3789062 -3.80859,6.347656 -9.39453,6.09375 -11.9336,-1.269531 -11.9336,-25.1367187 0,-12.9492183 1.01563,-23.6132813 l 6.85547,1.777344 z m 37.57812,34.2773436 q -0.76172,-6.8554688 -3.30078,-13.7109375 -2.79297,-7.1093751 -8.88672,-14.4726561 l 5.58594,-4.0625 q 6.60156,6.601562 10.41016,14.7265623 3.80859,8.37890629 4.57031,15.4882813 l -8.37891,2.03125 z"
           style=""
           id="path4151" />
        <path
           d="m -592.2738,-19.764227 q 6.85547,7.871094 12.1875,17.2656251 4.82422,8.6328125 7.10937,17.7734379 l -8.125,2.285156 q -1.52344,-7.6171877 -6.34765,-17.01171891 -5.07813,-9.64843749 -10.41016,-16.50390609 l 5.58594,-3.808594 z m 12.4414,-3.046875 q 1.77735,0 2.79297,-1.015625 1.01563,-1.015625 1.01563,-2.792969 0,-1.523437 -1.01563,-2.539062 -1.26953,-1.269531 -2.79297,-1.269531 -1.52343,0 -2.53906,1.015625 -1.26953,1.269531 -1.26953,2.792968 0,1.523438 1.26953,2.792969 1.01563,1.015625 2.53906,1.015625 z m 0,-11.679687 q 3.30078,0 5.58594,2.285156 2.28516,2.285156 2.28516,5.585937 0,3.300782 -2.28516,5.585938 -2.28516,2.285156 -5.58594,2.285156 -3.30078,0 -5.58593,-2.285156 -2.28516,-2.285156 -2.28516,-5.585938 0,-3.300781 2.28516,-5.585937 2.28515,-2.285156 5.58593,-2.285156 z m -30.97656,19.296875 q 2.28516,1.015625 2.28516,1.777343 0,1.015625 -1.52344,1.015625 -5.33203,18.7890628 -16.25,31.992188 l -6.34766,-5.078125 q 3.8086,-3.808594 8.63282,-12.9492189 4.82421,-9.6484375 7.10937,-19.2968751 l 6.09375,2.539063 z"
           style=""
           id="path4153" />
        <path
           d="m -565.63708,0.29436684 0,-7.61718754 58.65234,0 0,7.61718754 -58.65234,0 z"
           style=""
           id="path4155" />
        <path
           d="m -471.71521,-30.174383 q 1.77734,0 2.03125,0.761719 0.25391,0.761718 -1.01562,1.523437 l 0,16.757813 q 6.09375,1.5234371 12.1875,4.0624996 5.83984,2.5390625 11.93359,5.8398437 l -3.80859,6.09375 q -5.33204,-3.046875 -9.90235,-5.07812496 -5.07812,-2.28515624 -10.41015,-3.55468754 l 0,27.1679692 -7.61719,0 0,-53.574219 6.60156,0 z"
           style=""
           id="path4157" />
        <path
           d="m -400.39099,-30.428289 q 2.28516,0 2.53906,1.015625 0.25391,1.015625 -1.26953,1.523437 0.25391,6.601563 0.50781,13.203125 l 22.85157,0 0,7.1093751 -22.85157,0 q 0.76172,12.9492187 -4.82422,20.5664059 -5.33203,7.363282 -11.93359,12.1875 l -5.58594,-5.332031 q 15.74219,-9.9023437 14.72657,-27.4218749 l -24.62891,0 0,-7.1093751 24.62891,0 q -0.25391,-7.871094 -0.50782,-15.742187 l 6.34766,0 z"
           style=""
           id="path4159" />
        <path
           d="m -366.13708,0.29436684 0,-7.61718754 58.65234,0 0,7.61718754 -58.65234,0 z"
           style=""
           id="path4161" />
      </g>
    </g>
    <path
       style="color:#000000;font-style:normal;font-variant:normal;font-weight:normal;font-stretch:normal;font-size:medium;line-height:normal;font-family:sans-serif;text-indent:0;text-align:start;text-decoration:none;text-decoration-line:none;text-decoration-style:solid;text-decoration-color:#000000;letter-spacing:normal;word-spacing:normal;text-transform:none;direction:ltr;block-progression:tb;writing-mode:lr-tb;baseline-shift:baseline;text-anchor:start;white-space:normal;clip-rule:nonzero;display:inline;overflow:visible;visibility:visible;opacity:1;isolation:auto;mix-blend-mode:normal;color-interpolation:sRGB;color-interpolation-filters:linearRGB;solid-color:#000000;solid-opacity:1;fill:#1d2088;fill-opacity:1;fill-rule:nonzero;stroke:none;stroke-width:35;stroke-linecap:round;stroke-linejoin:round;stroke-miterlimit:4;stroke-dasharray:none;stroke-dashoffset:0;stroke-opacity:1;color-rendering:auto;image-rendering:auto;shape-rendering:auto;text-rendering:auto;enable-background:accumulate"
       d="m -78.090095,299.50507 0,13.61914 c -59.263995,7.58599 -106.937095,53.14803 -117.708995,111.38086 l 35.7578,0 c 9.7207,-39.1091 41.7594,-69.17314 81.951195,-76.02344 l 0,38.52344 0,20.96679 c 5.3662,-2.23385 11.2746,-3.46679 17.5,-3.46679 6.2254,0 12.1337,1.23294 17.5,3.46679 l 0,-36.49804 0,-22.99219 c 40.1917003,6.8503 72.2304,36.91434 81.9511,76.02344 l 35.7579,0 c -10.7719,-58.23283 -58.4451,-103.79487 -117.709,-111.38086 l 0,-13.61914 -35,0 z m -7.5,74.05273 c -26.413395,8.769 -46.839095,31.00005 -53.039095,58.44727 l -22.9824,0 -35.3672,0 -13.6113,0 0,35 13.6113,0 35.3672,0 22.9824,0 c 6.2,27.44721 26.6257,49.67827 53.039095,58.44726 l 0,-38.41797 c -12.1001,-8.02159 -19.999995,-21.75874 -19.999995,-37.52929 0,-15.77056 7.899895,-29.5077 19.999995,-37.5293 l 0,-38.41797 z m 50,0 0,38.41797 c 12.1001,8.0216 20,21.75874 20,37.5293 0,15.77055 -7.8999,29.5077 -20,37.52929 l 0,38.41797 c 26.4134003,-8.76899 46.8391,-31.00005 53.039,-58.44726 l 22.9825,0 35.3671,0 13.6114,0 0,-35 -13.6114,0 -35.3671,0 -22.9825,0 c -6.1999,-27.44722 -26.6255997,-49.67827 -53.039,-58.44727 z M -195.79909,474.50507 c 10.7719,58.23282 58.445,103.79488 117.708995,111.38088 l 0,13.6191 35,0 0,-13.6191 c 59.2639,-7.586 106.9371,-53.14806 117.709,-111.38088 l -35.7579,0 c -9.7207,39.10909 -41.7593997,69.17313 -81.9511,76.02343 l 0,-37.02343 0,-22.4668 c -5.3663,2.23385 -11.2746,3.4668 -17.5,3.4668 -6.2254,0 -12.1338,-1.23295 -17.5,-3.4668 l 0,36.49805 0,22.99218 c -40.191795,-6.8503 -72.230495,-36.91434 -81.951195,-76.02343 l -35.7578,0 z"
       id="path2838-7-4-1-8"
       inkscape:connector-curvature="0" />
  </g>
</svg>
